<?xml version="1.0" encoding="UTF-8" standalone="no"?>
<!DOCTYPE svg PUBLIC "-//W3C//DTD SVG 1.1//EN"
 "http://www.w3.org/Graphics/SVG/1.1/DTD/svg11.dtd">
<!-- Generated by graphviz version 2.40.1 (20161225.0304)
 -->
<!-- Title: plot Pages: 1 -->
<svg width="498pt" height="1382pt"
 viewBox="0.00 0.00 498.00 1382.00" xmlns="http://www.w3.org/2000/svg" xmlns:xlink="http://www.w3.org/1999/xlink">
<g id="graph0" class="graph" transform="scale(1 1) rotate(0) translate(4 1378)">
<title>plot</title>
<polygon fill="#ffffff" stroke="transparent" points="-4,4 -4,-1378 494,-1378 494,4 -4,4"/>
<!-- param_7 -->
<g id="node1" class="node">
<title>param_7</title>
<ellipse fill="#8dd3c7" stroke="#000000" cx="47" cy="-875" rx="47" ry="29"/>
<text text-anchor="middle" x="47" y="-870.8" font-family="Times,serif" font-size="14.00" fill="#000000">param_7</text>
</g>
<!-- reshape27 -->
<g id="node2" class="node">
<title>reshape27</title>
<ellipse fill="#fdb462" stroke="#000000" cx="47" cy="-969" rx="47" ry="29"/>
<text text-anchor="middle" x="47" y="-964.8" font-family="Times,serif" font-size="14.00" fill="#000000">reshape27</text>
</g>
<!-- reshape27&#45;&gt;param_7 -->
<g id="edge1" class="edge">
<title>reshape27&#45;&gt;param_7</title>
<path fill="none" stroke="#000000" d="M47,-929.6321C47,-921.1148 47,-912.2539 47,-904.2088"/>
<polygon fill="#000000" stroke="#000000" points="47,-939.7731 42.5001,-929.773 47,-934.7731 47.0001,-929.7731 47.0001,-929.7731 47.0001,-929.7731 47,-934.7731 51.5001,-929.7731 47,-939.7731 47,-939.7731"/>
</g>
<!-- param_5 -->
<g id="node3" class="node">
<title>param_5</title>
<ellipse fill="#8dd3c7" stroke="#000000" cx="103" cy="-593" rx="47" ry="29"/>
<text text-anchor="middle" x="103" y="-588.8" font-family="Times,serif" font-size="14.00" fill="#000000">param_5</text>
</g>
<!-- reshape26 -->
<g id="node4" class="node">
<title>reshape26</title>
<ellipse fill="#fdb462" stroke="#000000" cx="103" cy="-687" rx="47" ry="29"/>
<text text-anchor="middle" x="103" y="-682.8" font-family="Times,serif" font-size="14.00" fill="#000000">reshape26</text>
</g>
<!-- reshape26&#45;&gt;param_5 -->
<g id="edge2" class="edge">
<title>reshape26&#45;&gt;param_5</title>
<path fill="none" stroke="#000000" d="M103,-647.6321C103,-639.1148 103,-630.2539 103,-622.2088"/>
<polygon fill="#000000" stroke="#000000" points="103,-657.7731 98.5001,-647.773 103,-652.7731 103.0001,-647.7731 103.0001,-647.7731 103.0001,-647.7731 103,-652.7731 107.5001,-647.7731 103,-657.7731 103,-657.7731"/>
</g>
<!-- param_3 -->
<g id="node5" class="node">
<title>param_3</title>
<ellipse fill="#8dd3c7" stroke="#000000" cx="159" cy="-311" rx="47" ry="29"/>
<text text-anchor="middle" x="159" y="-306.8" font-family="Times,serif" font-size="14.00" fill="#000000">param_3</text>
</g>
<!-- reshape25 -->
<g id="node6" class="node">
<title>reshape25</title>
<ellipse fill="#fdb462" stroke="#000000" cx="159" cy="-405" rx="47" ry="29"/>
<text text-anchor="middle" x="159" y="-400.8" font-family="Times,serif" font-size="14.00" fill="#000000">reshape25</text>
</g>
<!-- reshape25&#45;&gt;param_3 -->
<g id="edge3" class="edge">
<title>reshape25&#45;&gt;param_3</title>
<path fill="none" stroke="#000000" d="M159,-365.6321C159,-357.1148 159,-348.2539 159,-340.2088"/>
<polygon fill="#000000" stroke="#000000" points="159,-375.7731 154.5001,-365.773 159,-370.7731 159.0001,-365.7731 159.0001,-365.7731 159.0001,-365.7731 159,-370.7731 163.5001,-365.7731 159,-375.7731 159,-375.7731"/>
</g>
<!-- param_1 -->
<g id="node7" class="node">
<title>param_1</title>
<ellipse fill="#8dd3c7" stroke="#000000" cx="215" cy="-29" rx="47" ry="29"/>
<text text-anchor="middle" x="215" y="-24.8" font-family="Times,serif" font-size="14.00" fill="#000000">param_1</text>
</g>
<!-- reshape24 -->
<g id="node8" class="node">
<title>reshape24</title>
<ellipse fill="#fdb462" stroke="#000000" cx="215" cy="-123" rx="47" ry="29"/>
<text text-anchor="middle" x="215" y="-118.8" font-family="Times,serif" font-size="14.00" fill="#000000">reshape24</text>
</g>
<!-- reshape24&#45;&gt;param_1 -->
<g id="edge4" class="edge">
<title>reshape24&#45;&gt;param_1</title>
<path fill="none" stroke="#000000" d="M215,-83.6321C215,-75.1148 215,-66.2539 215,-58.2088"/>
<polygon fill="#000000" stroke="#000000" points="215,-93.7731 210.5001,-83.773 215,-88.7731 215.0001,-83.7731 215.0001,-83.7731 215.0001,-83.7731 215,-88.7731 219.5001,-83.7731 215,-93.7731 215,-93.7731"/>
</g>
<!-- input_0 -->
<g id="node9" class="node">
<title>input_0</title>
<ellipse fill="#8dd3c7" stroke="#000000" cx="331" cy="-29" rx="47" ry="29"/>
<text text-anchor="middle" x="331" y="-24.8" font-family="Times,serif" font-size="14.00" fill="#000000">input_0</text>
</g>
<!-- param_0 -->
<g id="node10" class="node">
<title>param_0</title>
<ellipse fill="#8dd3c7" stroke="#000000" cx="443" cy="-29" rx="47" ry="29"/>
<text text-anchor="middle" x="443" y="-24.8" font-family="Times,serif" font-size="14.00" fill="#000000">param_0</text>
</g>
<!-- convolution16 -->
<g id="node11" class="node">
<title>convolution16</title>
<ellipse fill="#fb8072" stroke="#000000" cx="335" cy="-123" rx="54.6951" ry="29"/>
<text text-anchor="middle" x="335" y="-125.8" font-family="Times,serif" font-size="14.00" fill="#000000">Convolution</text>
<text text-anchor="middle" x="335" y="-111.8" font-family="Times,serif" font-size="14.00" fill="#000000">5x5/1x1, 64</text>
</g>
<!-- convolution16&#45;&gt;input_0 -->
<g id="edge5" class="edge">
<title>convolution16&#45;&gt;input_0</title>
<path fill="none" stroke="#000000" d="M333.3248,-83.6321C332.9623,-75.1148 332.5853,-66.2539 332.2429,-58.2088"/>
<polygon fill="#000000" stroke="#000000" points="333.7563,-93.7731 328.8351,-83.9735 333.5437,-88.7776 333.3311,-83.7821 333.3311,-83.7821 333.3311,-83.7821 333.5437,-88.7776 337.827,-83.5908 333.7563,-93.7731 333.7563,-93.7731"/>
</g>
<!-- convolution16&#45;&gt;param_0 -->
<g id="edge6" class="edge">
<title>convolution16&#45;&gt;param_0</title>
<path fill="none" stroke="#000000" d="M371.4709,-91.2568C385.937,-78.666 402.2856,-64.4366 415.698,-52.7629"/>
<polygon fill="#000000" stroke="#000000" points="363.6585,-98.0565 368.2472,-88.0969 367.43,-94.7739 371.2015,-91.4912 371.2015,-91.4912 371.2015,-91.4912 367.43,-94.7739 374.1559,-94.8856 363.6585,-98.0565 363.6585,-98.0565"/>
</g>
<!-- broadcast_add16 -->
<g id="node12" class="node">
<title>broadcast_add16</title>
<ellipse fill="#fccde5" stroke="#000000" cx="275" cy="-217" rx="59.809" ry="29"/>
<text text-anchor="middle" x="275" y="-212.8" font-family="Times,serif" font-size="14.00" fill="#000000">broadcast_add16</text>
</g>
<!-- broadcast_add16&#45;&gt;reshape24 -->
<g id="edge7" class="edge">
<title>broadcast_add16&#45;&gt;reshape24</title>
<path fill="none" stroke="#000000" d="M251.6321,-180.3903C245.1784,-170.2795 238.2937,-159.4934 232.2551,-150.033"/>
<polygon fill="#000000" stroke="#000000" points="257.1605,-189.0514 247.9869,-183.0433 254.4703,-184.8368 251.7801,-180.6222 251.7801,-180.6222 251.7801,-180.6222 254.4703,-184.8368 255.5732,-178.201 257.1605,-189.0514 257.1605,-189.0514"/>
</g>
<!-- broadcast_add16&#45;&gt;convolution16 -->
<g id="edge8" class="edge">
<title>broadcast_add16&#45;&gt;convolution16</title>
<path fill="none" stroke="#000000" d="M298.2684,-180.5461C304.6045,-170.6196 311.363,-160.0313 317.3327,-150.6788"/>
<polygon fill="#000000" stroke="#000000" points="292.8395,-189.0514 294.4268,-178.201 295.5297,-184.8368 298.2199,-180.6222 298.2199,-180.6222 298.2199,-180.6222 295.5297,-184.8368 302.0131,-183.0433 292.8395,-189.0514 292.8395,-189.0514"/>
</g>
<!-- relu12 -->
<g id="node13" class="node">
<title>relu12</title>
<ellipse fill="#fccde5" stroke="#000000" cx="275" cy="-311" rx="47" ry="29"/>
<text text-anchor="middle" x="275" y="-306.8" font-family="Times,serif" font-size="14.00" fill="#000000">relu12</text>
</g>
<!-- relu12&#45;&gt;broadcast_add16 -->
<g id="edge9" class="edge">
<title>relu12&#45;&gt;broadcast_add16</title>
<path fill="none" stroke="#000000" d="M275,-271.6321C275,-263.1148 275,-254.2539 275,-246.2088"/>
<polygon fill="#000000" stroke="#000000" points="275,-281.7731 270.5001,-271.773 275,-276.7731 275.0001,-271.7731 275.0001,-271.7731 275.0001,-271.7731 275,-276.7731 279.5001,-271.7731 275,-281.7731 275,-281.7731"/>
</g>
<!-- param_2 -->
<g id="node14" class="node">
<title>param_2</title>
<ellipse fill="#8dd3c7" stroke="#000000" cx="387" cy="-311" rx="47" ry="29"/>
<text text-anchor="middle" x="387" y="-306.8" font-family="Times,serif" font-size="14.00" fill="#000000">param_2</text>
</g>
<!-- convolution17 -->
<g id="node15" class="node">
<title>convolution17</title>
<ellipse fill="#fb8072" stroke="#000000" cx="279" cy="-405" rx="54.6951" ry="29"/>
<text text-anchor="middle" x="279" y="-407.8" font-family="Times,serif" font-size="14.00" fill="#000000">Convolution</text>
<text text-anchor="middle" x="279" y="-393.8" font-family="Times,serif" font-size="14.00" fill="#000000">3x3/1x1, 64</text>
</g>
<!-- convolution17&#45;&gt;relu12 -->
<g id="edge10" class="edge">
<title>convolution17&#45;&gt;relu12</title>
<path fill="none" stroke="#000000" d="M277.3248,-365.6321C276.9623,-357.1148 276.5853,-348.2539 276.2429,-340.2088"/>
<polygon fill="#000000" stroke="#000000" points="277.7563,-375.7731 272.8351,-365.9735 277.5437,-370.7776 277.3311,-365.7821 277.3311,-365.7821 277.3311,-365.7821 277.5437,-370.7776 281.827,-365.5908 277.7563,-375.7731 277.7563,-375.7731"/>
</g>
<!-- convolution17&#45;&gt;param_2 -->
<g id="edge11" class="edge">
<title>convolution17&#45;&gt;param_2</title>
<path fill="none" stroke="#000000" d="M315.4709,-373.2568C329.937,-360.666 346.2856,-346.4366 359.698,-334.7629"/>
<polygon fill="#000000" stroke="#000000" points="307.6585,-380.0565 312.2472,-370.0969 311.43,-376.7739 315.2015,-373.4912 315.2015,-373.4912 315.2015,-373.4912 311.43,-376.7739 318.1559,-376.8856 307.6585,-380.0565 307.6585,-380.0565"/>
</g>
<!-- broadcast_add17 -->
<g id="node16" class="node">
<title>broadcast_add17</title>
<ellipse fill="#fccde5" stroke="#000000" cx="219" cy="-499" rx="59.809" ry="29"/>
<text text-anchor="middle" x="219" y="-494.8" font-family="Times,serif" font-size="14.00" fill="#000000">broadcast_add17</text>
</g>
<!-- broadcast_add17&#45;&gt;reshape25 -->
<g id="edge12" class="edge">
<title>broadcast_add17&#45;&gt;reshape25</title>
<path fill="none" stroke="#000000" d="M195.6321,-462.3903C189.1784,-452.2795 182.2937,-441.4934 176.2551,-432.033"/>
<polygon fill="#000000" stroke="#000000" points="201.1605,-471.0514 191.9869,-465.0433 198.4703,-466.8368 195.7801,-462.6222 195.7801,-462.6222 195.7801,-462.6222 198.4703,-466.8368 199.5732,-460.201 201.1605,-471.0514 201.1605,-471.0514"/>
</g>
<!-- broadcast_add17&#45;&gt;convolution17 -->
<g id="edge13" class="edge">
<title>broadcast_add17&#45;&gt;convolution17</title>
<path fill="none" stroke="#000000" d="M242.2684,-462.5461C248.6045,-452.6196 255.363,-442.0313 261.3327,-432.6788"/>
<polygon fill="#000000" stroke="#000000" points="236.8395,-471.0514 238.4268,-460.201 239.5297,-466.8368 242.2199,-462.6222 242.2199,-462.6222 242.2199,-462.6222 239.5297,-466.8368 246.0131,-465.0433 236.8395,-471.0514 236.8395,-471.0514"/>
</g>
<!-- relu13 -->
<g id="node17" class="node">
<title>relu13</title>
<ellipse fill="#fccde5" stroke="#000000" cx="219" cy="-593" rx="47" ry="29"/>
<text text-anchor="middle" x="219" y="-588.8" font-family="Times,serif" font-size="14.00" fill="#000000">relu13</text>
</g>
<!-- relu13&#45;&gt;broadcast_add17 -->
<g id="edge14" class="edge">
<title>relu13&#45;&gt;broadcast_add17</title>
<path fill="none" stroke="#000000" d="M219,-553.6321C219,-545.1148 219,-536.2539 219,-528.2088"/>
<polygon fill="#000000" stroke="#000000" points="219,-563.7731 214.5001,-553.773 219,-558.7731 219.0001,-553.7731 219.0001,-553.7731 219.0001,-553.7731 219,-558.7731 223.5001,-553.7731 219,-563.7731 219,-563.7731"/>
</g>
<!-- param_4 -->
<g id="node18" class="node">
<title>param_4</title>
<ellipse fill="#8dd3c7" stroke="#000000" cx="331" cy="-593" rx="47" ry="29"/>
<text text-anchor="middle" x="331" y="-588.8" font-family="Times,serif" font-size="14.00" fill="#000000">param_4</text>
</g>
<!-- convolution18 -->
<g id="node19" class="node">
<title>convolution18</title>
<ellipse fill="#fb8072" stroke="#000000" cx="223" cy="-687" rx="54.6951" ry="29"/>
<text text-anchor="middle" x="223" y="-689.8" font-family="Times,serif" font-size="14.00" fill="#000000">Convolution</text>
<text text-anchor="middle" x="223" y="-675.8" font-family="Times,serif" font-size="14.00" fill="#000000">3x3/1x1, 32</text>
</g>
<!-- convolution18&#45;&gt;relu13 -->
<g id="edge15" class="edge">
<title>convolution18&#45;&gt;relu13</title>
<path fill="none" stroke="#000000" d="M221.3248,-647.6321C220.9623,-639.1148 220.5853,-630.2539 220.2429,-622.2088"/>
<polygon fill="#000000" stroke="#000000" points="221.7563,-657.7731 216.8351,-647.9735 221.5437,-652.7776 221.3311,-647.7821 221.3311,-647.7821 221.3311,-647.7821 221.5437,-652.7776 225.827,-647.5908 221.7563,-657.7731 221.7563,-657.7731"/>
</g>
<!-- convolution18&#45;&gt;param_4 -->
<g id="edge16" class="edge">
<title>convolution18&#45;&gt;param_4</title>
<path fill="none" stroke="#000000" d="M259.4709,-655.2568C273.937,-642.666 290.2856,-628.4366 303.698,-616.7629"/>
<polygon fill="#000000" stroke="#000000" points="251.6585,-662.0565 256.2472,-652.0969 255.43,-658.7739 259.2015,-655.4912 259.2015,-655.4912 259.2015,-655.4912 255.43,-658.7739 262.1559,-658.8856 251.6585,-662.0565 251.6585,-662.0565"/>
</g>
<!-- broadcast_add18 -->
<g id="node20" class="node">
<title>broadcast_add18</title>
<ellipse fill="#fccde5" stroke="#000000" cx="163" cy="-781" rx="59.809" ry="29"/>
<text text-anchor="middle" x="163" y="-776.8" font-family="Times,serif" font-size="14.00" fill="#000000">broadcast_add18</text>
</g>
<!-- broadcast_add18&#45;&gt;reshape26 -->
<g id="edge17" class="edge">
<title>broadcast_add18&#45;&gt;reshape26</title>
<path fill="none" stroke="#000000" d="M139.6321,-744.3903C133.1784,-734.2795 126.2937,-723.4934 120.2551,-714.033"/>
<polygon fill="#000000" stroke="#000000" points="145.1605,-753.0514 135.9869,-747.0433 142.4703,-748.8368 139.7801,-744.6222 139.7801,-744.6222 139.7801,-744.6222 142.4703,-748.8368 143.5732,-742.201 145.1605,-753.0514 145.1605,-753.0514"/>
</g>
<!-- broadcast_add18&#45;&gt;convolution18 -->
<g id="edge18" class="edge">
<title>broadcast_add18&#45;&gt;convolution18</title>
<path fill="none" stroke="#000000" d="M186.2684,-744.5461C192.6045,-734.6196 199.363,-724.0313 205.3327,-714.6788"/>
<polygon fill="#000000" stroke="#000000" points="180.8395,-753.0514 182.4268,-742.201 183.5297,-748.8368 186.2199,-744.6222 186.2199,-744.6222 186.2199,-744.6222 183.5297,-748.8368 190.0131,-747.0433 180.8395,-753.0514 180.8395,-753.0514"/>
</g>
<!-- relu14 -->
<g id="node21" class="node">
<title>relu14</title>
<ellipse fill="#fccde5" stroke="#000000" cx="163" cy="-875" rx="47" ry="29"/>
<text text-anchor="middle" x="163" y="-870.8" font-family="Times,serif" font-size="14.00" fill="#000000">relu14</text>
</g>
<!-- relu14&#45;&gt;broadcast_add18 -->
<g id="edge19" class="edge">
<title>relu14&#45;&gt;broadcast_add18</title>
<path fill="none" stroke="#000000" d="M163,-835.6321C163,-827.1148 163,-818.2539 163,-810.2088"/>
<polygon fill="#000000" stroke="#000000" points="163,-845.7731 158.5001,-835.773 163,-840.7731 163.0001,-835.7731 163.0001,-835.7731 163.0001,-835.7731 163,-840.7731 167.5001,-835.7731 163,-845.7731 163,-845.7731"/>
</g>
<!-- param_6 -->
<g id="node22" class="node">
<title>param_6</title>
<ellipse fill="#8dd3c7" stroke="#000000" cx="275" cy="-875" rx="47" ry="29"/>
<text text-anchor="middle" x="275" y="-870.8" font-family="Times,serif" font-size="14.00" fill="#000000">param_6</text>
</g>
<!-- convolution19 -->
<g id="node23" class="node">
<title>convolution19</title>
<ellipse fill="#fb8072" stroke="#000000" cx="167" cy="-969" rx="54.6951" ry="29"/>
<text text-anchor="middle" x="167" y="-971.8" font-family="Times,serif" font-size="14.00" fill="#000000">Convolution</text>
<text text-anchor="middle" x="167" y="-957.8" font-family="Times,serif" font-size="14.00" fill="#000000">3x3/1x1, 9</text>
</g>
<!-- convolution19&#45;&gt;relu14 -->
<g id="edge20" class="edge">
<title>convolution19&#45;&gt;relu14</title>
<path fill="none" stroke="#000000" d="M165.3248,-929.6321C164.9623,-921.1148 164.5853,-912.2539 164.2429,-904.2088"/>
<polygon fill="#000000" stroke="#000000" points="165.7563,-939.7731 160.8351,-929.9735 165.5437,-934.7776 165.3311,-929.7821 165.3311,-929.7821 165.3311,-929.7821 165.5437,-934.7776 169.827,-929.5908 165.7563,-939.7731 165.7563,-939.7731"/>
</g>
<!-- convolution19&#45;&gt;param_6 -->
<g id="edge21" class="edge">
<title>convolution19&#45;&gt;param_6</title>
<path fill="none" stroke="#000000" d="M203.4709,-937.2568C217.937,-924.666 234.2856,-910.4366 247.698,-898.7629"/>
<polygon fill="#000000" stroke="#000000" points="195.6585,-944.0565 200.2472,-934.0969 199.43,-940.7739 203.2015,-937.4912 203.2015,-937.4912 203.2015,-937.4912 199.43,-940.7739 206.1559,-940.8856 195.6585,-944.0565 195.6585,-944.0565"/>
</g>
<!-- broadcast_add19 -->
<g id="node24" class="node">
<title>broadcast_add19</title>
<ellipse fill="#fccde5" stroke="#000000" cx="107" cy="-1063" rx="59.809" ry="29"/>
<text text-anchor="middle" x="107" y="-1058.8" font-family="Times,serif" font-size="14.00" fill="#000000">broadcast_add19</text>
</g>
<!-- broadcast_add19&#45;&gt;reshape27 -->
<g id="edge22" class="edge">
<title>broadcast_add19&#45;&gt;reshape27</title>
<path fill="none" stroke="#000000" d="M83.6321,-1026.3903C77.1784,-1016.2795 70.2937,-1005.4934 64.2551,-996.033"/>
<polygon fill="#000000" stroke="#000000" points="89.1605,-1035.0514 79.9869,-1029.0433 86.4703,-1030.8368 83.7801,-1026.6222 83.7801,-1026.6222 83.7801,-1026.6222 86.4703,-1030.8368 87.5732,-1024.201 89.1605,-1035.0514 89.1605,-1035.0514"/>
</g>
<!-- broadcast_add19&#45;&gt;convolution19 -->
<g id="edge23" class="edge">
<title>broadcast_add19&#45;&gt;convolution19</title>
<path fill="none" stroke="#000000" d="M130.2684,-1026.5461C136.6045,-1016.6196 143.363,-1006.0313 149.3327,-996.6788"/>
<polygon fill="#000000" stroke="#000000" points="124.8395,-1035.0514 126.4268,-1024.201 127.5297,-1030.8368 130.2199,-1026.6222 130.2199,-1026.6222 130.2199,-1026.6222 127.5297,-1030.8368 134.0131,-1029.0433 124.8395,-1035.0514 124.8395,-1035.0514"/>
</g>
<!-- reshape28 -->
<g id="node25" class="node">
<title>reshape28</title>
<ellipse fill="#fdb462" stroke="#000000" cx="107" cy="-1157" rx="47" ry="29"/>
<text text-anchor="middle" x="107" y="-1152.8" font-family="Times,serif" font-size="14.00" fill="#000000">reshape28</text>
</g>
<!-- reshape28&#45;&gt;broadcast_add19 -->
<g id="edge24" class="edge">
<title>reshape28&#45;&gt;broadcast_add19</title>
<path fill="none" stroke="#000000" d="M107,-1117.6321C107,-1109.1148 107,-1100.2539 107,-1092.2088"/>
<polygon fill="#000000" stroke="#000000" points="107,-1127.7731 102.5001,-1117.773 107,-1122.7731 107.0001,-1117.7731 107.0001,-1117.7731 107.0001,-1117.7731 107,-1122.7731 111.5001,-1117.7731 107,-1127.7731 107,-1127.7731"/>
</g>
<!-- transpose4 -->
<g id="node26" class="node">
<title>transpose4</title>
<ellipse fill="#fccde5" stroke="#000000" cx="107" cy="-1251" rx="47" ry="29"/>
<text text-anchor="middle" x="107" y="-1246.8" font-family="Times,serif" font-size="14.00" fill="#000000">transpose4</text>
</g>
<!-- transpose4&#45;&gt;reshape28 -->
<g id="edge25" class="edge">
<title>transpose4&#45;&gt;reshape28</title>
<path fill="none" stroke="#000000" d="M107,-1211.6321C107,-1203.1148 107,-1194.2539 107,-1186.2088"/>
<polygon fill="#000000" stroke="#000000" points="107,-1221.7731 102.5001,-1211.773 107,-1216.7731 107.0001,-1211.7731 107.0001,-1211.7731 107.0001,-1211.7731 107,-1216.7731 111.5001,-1211.7731 107,-1221.7731 107,-1221.7731"/>
</g>
<!-- reshape29 -->
<g id="node27" class="node">
<title>reshape29</title>
<ellipse fill="#fdb462" stroke="#000000" cx="107" cy="-1345" rx="47" ry="29"/>
<text text-anchor="middle" x="107" y="-1340.8" font-family="Times,serif" font-size="14.00" fill="#000000">reshape29</text>
</g>
<!-- reshape29&#45;&gt;transpose4 -->
<g id="edge26" class="edge">
<title>reshape29&#45;&gt;transpose4</title>
<path fill="none" stroke="#000000" d="M107,-1305.6321C107,-1297.1148 107,-1288.2539 107,-1280.2088"/>
<polygon fill="#000000" stroke="#000000" points="107,-1315.7731 102.5001,-1305.773 107,-1310.7731 107.0001,-1305.7731 107.0001,-1305.7731 107.0001,-1305.7731 107,-1310.7731 111.5001,-1305.7731 107,-1315.7731 107,-1315.7731"/>
</g>
</g>
</svg>
