<?xml version="1.0" encoding="UTF-8" standalone="no"?>
<!DOCTYPE svg PUBLIC "-//W3C//DTD SVG 1.1//EN"
 "http://www.w3.org/Graphics/SVG/1.1/DTD/svg11.dtd">
<!-- Generated by graphviz version 2.40.1 (20161225.0304)
 -->
<!-- Title: plot Pages: 1 -->
<svg width="214pt" height="442pt"
 viewBox="0.00 0.00 214.00 442.00" xmlns="http://www.w3.org/2000/svg" xmlns:xlink="http://www.w3.org/1999/xlink">
<g id="graph0" class="graph" transform="scale(1 1) rotate(0) translate(4 438)">
<title>plot</title>
<polygon fill="#ffffff" stroke="transparent" points="-4,4 -4,-438 210,-438 210,4 -4,4"/>
<!-- data -->
<g id="node1" class="node">
<title>data</title>
<ellipse fill="#8dd3c7" stroke="#000000" cx="47" cy="-29" rx="47" ry="29"/>
<text text-anchor="middle" x="47" y="-24.8" font-family="Times,serif" font-size="14.00" fill="#000000">data</text>
</g>
<!-- fc1 -->
<g id="node2" class="node">
<title>fc1</title>
<polygon fill="#fb8072" stroke="#000000" points="94,-152 0,-152 0,-94 94,-94 94,-152"/>
<text text-anchor="middle" x="47" y="-125.8" font-family="Times,serif" font-size="14.00" fill="#000000">FullyConnected</text>
<text text-anchor="middle" x="47" y="-111.8" font-family="Times,serif" font-size="14.00" fill="#000000">64</text>
</g>
<!-- fc1&#45;&gt;data -->
<g id="edge1" class="edge">
<title>fc1&#45;&gt;data</title>
<path fill="none" stroke="#000000" d="M47,-83.6321C47,-75.1148 47,-66.2539 47,-58.2088"/>
<polygon fill="#000000" stroke="#000000" points="47,-93.7731 42.5001,-83.773 47,-88.7731 47.0001,-83.7731 47.0001,-83.7731 47.0001,-83.7731 47,-88.7731 51.5001,-83.7731 47,-93.7731 47,-93.7731"/>
</g>
<!-- relu1 -->
<g id="node3" class="node">
<title>relu1</title>
<polygon fill="#ffffb3" stroke="#000000" points="94,-246 0,-246 0,-188 94,-188 94,-246"/>
<text text-anchor="middle" x="47" y="-219.8" font-family="Times,serif" font-size="14.00" fill="#000000">Activation</text>
<text text-anchor="middle" x="47" y="-205.8" font-family="Times,serif" font-size="14.00" fill="#000000">relu</text>
</g>
<!-- relu1&#45;&gt;fc1 -->
<g id="edge2" class="edge">
<title>relu1&#45;&gt;fc1</title>
<path fill="none" stroke="#000000" d="M47,-177.6321C47,-169.1148 47,-160.2539 47,-152.2088"/>
<polygon fill="#000000" stroke="#000000" points="47,-187.7731 42.5001,-177.773 47,-182.7731 47.0001,-177.7731 47.0001,-177.7731 47.0001,-177.7731 47,-182.7731 51.5001,-177.7731 47,-187.7731 47,-187.7731"/>
</g>
<!-- fc2 -->
<g id="node4" class="node">
<title>fc2</title>
<polygon fill="#fb8072" stroke="#000000" points="94,-340 0,-340 0,-282 94,-282 94,-340"/>
<text text-anchor="middle" x="47" y="-313.8" font-family="Times,serif" font-size="14.00" fill="#000000">FullyConnected</text>
<text text-anchor="middle" x="47" y="-299.8" font-family="Times,serif" font-size="14.00" fill="#000000">26</text>
</g>
<!-- fc2&#45;&gt;relu1 -->
<g id="edge3" class="edge">
<title>fc2&#45;&gt;relu1</title>
<path fill="none" stroke="#000000" d="M47,-271.6321C47,-263.1148 47,-254.2539 47,-246.2088"/>
<polygon fill="#000000" stroke="#000000" points="47,-281.7731 42.5001,-271.773 47,-276.7731 47.0001,-271.7731 47.0001,-271.7731 47.0001,-271.7731 47,-276.7731 51.5001,-271.7731 47,-281.7731 47,-281.7731"/>
</g>
<!-- softmax_label -->
<g id="node5" class="node">
<title>softmax_label</title>
<ellipse fill="#8dd3c7" stroke="#000000" cx="159" cy="-311" rx="47" ry="29"/>
<text text-anchor="middle" x="159" y="-306.8" font-family="Times,serif" font-size="14.00" fill="#000000">softmax_label</text>
</g>
<!-- softmax -->
<g id="node6" class="node">
<title>softmax</title>
<polygon fill="#fccde5" stroke="#000000" points="150,-434 56,-434 56,-376 150,-376 150,-434"/>
<text text-anchor="middle" x="103" y="-400.8" font-family="Times,serif" font-size="14.00" fill="#000000">softmax</text>
</g>
<!-- softmax&#45;&gt;fc2 -->
<g id="edge4" class="edge">
<title>softmax&#45;&gt;fc2</title>
<path fill="none" stroke="#000000" d="M80.3812,-367.0328C75.0542,-358.091 69.4571,-348.6959 64.401,-340.2088"/>
<polygon fill="#000000" stroke="#000000" points="85.5882,-375.7731 76.6042,-369.4852 83.0292,-371.4776 80.4701,-367.1821 80.4701,-367.1821 80.4701,-367.1821 83.0292,-371.4776 84.3361,-364.8789 85.5882,-375.7731 85.5882,-375.7731"/>
</g>
<!-- softmax&#45;&gt;softmax_label -->
<g id="edge5" class="edge">
<title>softmax&#45;&gt;softmax_label</title>
<path fill="none" stroke="#000000" d="M125.5712,-367.1126C131.3182,-357.4659 137.3825,-347.2865 142.7449,-338.2854"/>
<polygon fill="#000000" stroke="#000000" points="120.4118,-375.7731 121.6639,-364.8789 122.9708,-371.4776 125.5299,-367.1821 125.5299,-367.1821 125.5299,-367.1821 122.9708,-371.4776 129.3958,-369.4852 120.4118,-375.7731 120.4118,-375.7731"/>
</g>
</g>
</svg>
